<?xml version="1.0" encoding="UTF-8"?>
<svg version="1.1" id="Camada_1" xmlns="http://www.w3.org/2000/svg" width="22px" height="21px" viewBox="0 0 2500 2500"
  style="enable-background:new 0 0 2500 2500" xml:space="preserve">
  <style>
    .st2,
    .st3 {
      fill-rule: evenodd;
      clip-rule: evenodd;
      fill: #00acec
    }

    .st3 {
      fill: #fff
    }
  </style>
  <path d="M1250 0c688.5 0 1250 561.5 1250 1250s-561.5 1250-1250 1250S0 1938.5 0 1250 561.5 0 1250 0z"
    style="fill-rule:evenodd;clip-rule:evenodd" />
  <path
    d="m523.8 875.1-295-253.7L339.3 493c22.5-26.1 43.5-44.5 63-55.2 19.6-10.7 39.4-15.2 59.5-13.4 20 1.7 36.9 8.3 50.5 20 12.6 10.8 21 25 25.3 42.5 4.4 17.5 3 37.2-3.9 59.1 23-16.2 45.6-24.4 67.8-24.7 22.2-.3 41.9 7 59.1 21.7 13.6 11.6 23.8 26.5 29.8 43.3 6.1 17 8 33.2 5.9 48.7-2.1 15.5-8.1 32.2-17.6 50-9.6 17.8-23.8 37.6-42.5 59.5L523.8 875.1zm-132-192.4 63.6-74c17.2-20 28.4-35.4 33.7-46.1 6.9-14 9.5-26.9 7.6-38.6-1.9-11.7-7.9-22-18.2-30.9-9.7-8.4-20.7-13.1-32.8-14.1-12.2-.9-24 2.5-35.4 10.2-11.4 7.8-27.8 23.9-48.9 48.6L302.6 606l89.2 76.7zm136.1 117.1 73.2-85.2c12.6-14.7 21-25.4 25.1-32 7.3-11.8 12.1-22.8 14.4-33.1 2.3-10.2 1.8-20.7-1.5-31.3-3.4-10.7-9.6-20.1-19-28.2-11-9.5-23.3-14.4-37.1-14.9-13.7-.4-27.2 3.7-40.5 12.5-13.2 8.8-29.2 24.1-47.9 45.8l-68 79.1 101.3 87.3zm486.3-360.5V105.7h88l104.4 236.2c9.7 22 16.8 38.5 21.1 49.4 5-12.1 12.8-30 23.5-53.5l105.6-232.1h78.6v333.6h-56.3V160l-128.2 279.3h-52.7l-127.6-284v284h-56.4zm797.9 194.8 204.1-276.8 27.9 34.4-138.3 175.9c-14.2 18.3-29 36.2-44.3 53.6 32.9-15.9 51.8-25 57.1-27.3l213.7-93.3 32.8 40.5-101.5 142.3c-25.1 35.4-50.3 66.7-75.6 93.9 18.9-10 41.1-21 66.5-33l198.4-95 27.3 33.7-314.9 140.1-26.2-32.3 153.8-213c12.9-17.9 20.8-28.7 23.9-32.6-14 7-26.1 12.7-36.4 17.2l-240.6 105.9-27.7-34.2z"
    style="fill:#fff" />
  <path class="st2" d="M1988.4 1262.4c0 399.9-326.1 726-726 726v-726h726z" />
  <path class="st3" d="M1988.4 1237.6c0-399.9-326.1-726-726-726v726h726z" />
  <path class="st2" d="M511.6 1237.6c0-399.9 326.1-726 726-726v726h-726z" />
  <path class="st3" d="M511.6 1262.4c0 399.9 326.1 726 726 726v-726h-726z" />
</svg>